<svg width="591" height="360" viewBox="0 0 591 360" fill="none" xmlns="http://www.w3.org/2000/svg">
<path d="M458.721 217.936C491.812 193.632 539.255 195.428 563.033 228.9C681.07 395.065 388.238 581.384 146.5 581.384C-119.149 581.384 -334.5 368.719 -334.5 106.384C-24.491 -135.593 -29.4529 111.92 77.7802 129.971C148.63 141.898 234.011 145.851 261.958 212.04C322.006 354.254 356.712 292.853 458.721 217.936Z" fill="#172A3A" fill-opacity="0.15"/>
<path d="M453.221 255.053C486.312 230.749 533.755 232.545 557.533 266.017C675.57 432.182 382.738 618.501 141 618.501C-124.649 618.501 -340 405.836 -340 143.501C-29.991 -98.4762 -34.9529 149.037 72.2802 167.088C143.13 179.015 228.511 182.968 256.458 249.157C316.506 391.371 351.212 329.97 453.221 255.053Z" fill="#172A3A" fill-opacity="0.08"/>
</svg>
