<svg width="549" height="455" viewBox="0 0 549 455" fill="none" xmlns="http://www.w3.org/2000/svg">
<path d="M312.755 402.528C308.959 397.064 303.82 393.065 297.36 391.569C291.726 390.264 285.933 390.487 280.206 390.532L207.795 391.106C201.594 391.155 195.648 396.678 195.936 403.297C196.222 409.86 201.148 415.54 207.795 415.487C229.007 415.319 250.218 415.151 271.429 414.983C276.43 414.943 281.434 414.851 286.435 414.868C287.558 414.871 288.676 414.932 289.798 414.945C290.07 414.948 290.266 414.946 290.404 414.94C290.439 414.951 290.469 414.961 290.514 414.974C291.099 415.139 291.699 415.253 292.288 415.409C292.082 415.416 292.67 415.793 292.965 415.921C293.006 416.003 293.092 416.149 293.237 416.374C293.438 416.763 294.035 417.943 294.06 417.906C294.956 420.236 295.696 422.627 296.274 425.062C297.652 430.432 297.955 431.554 298.153 436.592C298.404 442.955 303.429 449.085 310.013 448.782C316.223 448.496 322.141 443.417 321.872 436.592C321.419 425.091 319.455 412.172 312.755 402.528Z" fill="#E6E6E6"/>
<path d="M212.052 430.037C210.692 421.565 209.358 413.087 207.971 404.62C206.564 396.03 203.691 388.164 197.188 382.526C195.45 381.02 193.649 379.614 191.839 378.212C191.203 377.719 190.568 377.225 189.939 376.722C189.902 376.692 189.878 376.673 189.845 376.647C189.776 376.586 189.693 376.513 189.582 376.416C186.871 374.058 184.252 371.595 181.758 368.977C179.542 366.652 177.424 364.228 175.402 361.705C174.897 361.074 174.398 360.439 173.906 359.797C173.821 359.687 173.365 359.081 173.065 358.686C172.785 358.29 172.275 357.575 172.189 357.451C171.614 356.615 171.049 355.771 170.494 354.92C166.717 349.102 163.446 342.954 160.72 336.546C160.45 335.91 160.186 335.271 159.928 334.628C159.859 334.432 159.77 334.18 159.651 333.844C159.102 332.291 158.553 330.74 158.051 329.168C156.984 325.831 156.066 322.444 155.298 319.007C154.918 317.31 154.577 315.605 154.273 313.891C154.116 313.01 153.969 312.126 153.833 311.241C153.811 311.094 153.677 310.139 153.599 309.6C153.541 309.058 153.433 308.098 153.419 307.949C153.332 307.057 153.255 306.164 153.187 305.27C153.036 303.259 152.933 301.244 152.88 299.225C152.789 295.639 152.851 292.052 153.067 288.466C153.19 286.451 153.365 284.441 153.581 282.435C153.594 282.312 153.604 282.214 153.614 282.125C153.627 282.036 153.642 281.934 153.66 281.807C153.82 280.699 153.988 279.592 154.175 278.488C154.887 274.298 155.812 270.149 156.947 266.059C157.485 264.124 158.068 262.205 158.698 260.302C158.979 259.457 159.269 258.615 159.568 257.777C159.548 257.831 160.444 255.479 160.456 255.4C164.01 246.768 169.823 238.899 169.831 229.094C169.837 222.455 164.373 216.096 157.972 216.402C154.78 216.526 151.76 217.918 149.548 220.286C147.336 222.653 146.104 225.811 146.112 229.094C146.112 229.243 146.111 229.37 146.111 229.494C146.051 229.7 146.001 229.873 145.957 230.025C145.263 231.574 144.414 233.045 143.654 234.554C141.57 238.687 139.792 242.954 138.103 247.285C135.338 254.337 133.221 261.64 131.781 269.097C128.651 285.438 128.408 302.224 131.064 318.653C135.662 347.463 150.826 375.042 171.907 393.58C173.737 395.188 175.611 396.743 177.502 398.266C178.285 398.896 179.075 399.515 179.868 400.129C180.243 400.42 181.796 401.679 181.113 401.069C182.582 402.358 183.201 403.007 183.578 403.956C183.633 404.176 183.708 404.473 183.808 404.879C184.074 405.95 184.327 407.018 184.537 408.104C186.372 417.591 187.647 427.237 189.18 436.785C190.234 443.346 198.091 447.616 203.769 445.65C210.377 443.361 213.181 437.067 212.052 430.037Z" fill="#E6E6E6"/>
<path d="M313.955 454.644C308.974 454.657 304.192 452.639 300.657 449.033C297.122 445.426 295.123 440.525 295.098 435.405V421.499C280.935 423.129 232.434 422.751 218.531 420.455V434.849C218.494 439.965 216.491 444.858 212.958 448.462C209.426 452.065 204.651 454.088 199.674 454.088C194.698 454.088 189.923 452.065 186.39 448.462C182.858 444.858 180.855 439.965 180.818 434.849V406.588C161.988 395.835 146.29 380.112 135.345 361.041C124.4 341.97 118.604 320.242 118.556 298.1C118.556 260.133 135.294 224.716 164.48 200.929C183.457 185.411 206.513 176.078 230.688 174.13C233.969 173.865 237.27 173.731 240.5 173.731C251.88 173.731 303.221 175.538 316.103 179.348L345.476 149.388C345.907 148.942 346.459 148.637 347.059 148.514C347.66 148.391 348.283 148.455 348.848 148.697C349.418 148.93 349.905 149.335 350.247 149.858C350.589 150.381 350.769 150.998 350.764 151.628V156.391L356.483 150.569C356.914 150.122 357.465 149.817 358.065 149.694C358.666 149.571 359.288 149.634 359.853 149.877C360.423 150.11 360.911 150.514 361.254 151.038C361.596 151.561 361.776 152.178 361.771 152.809V206.04C376.51 219.699 387.743 236.884 394.476 256.072C401.209 275.26 403.233 295.86 400.369 316.045C397.504 336.229 389.841 355.376 378.056 371.788C366.272 388.201 350.731 401.371 332.811 410.133V435.405C332.787 440.525 330.788 445.426 327.253 449.033C323.718 452.639 318.935 454.657 313.955 454.644ZM296.581 419.771V435.405C296.618 440.117 298.465 444.622 301.719 447.94C304.974 451.258 309.371 453.12 313.955 453.12C318.538 453.12 322.936 451.258 326.19 447.94C329.445 444.622 331.291 440.117 331.329 435.405V409.17L331.752 408.964C351.86 399.156 368.929 383.811 381.066 364.634C396.531 340.162 402.963 310.808 399.197 281.884C395.431 252.96 381.716 226.377 360.535 206.947L360.288 206.72V152.809C360.294 152.481 360.201 152.16 360.023 151.888C359.846 151.616 359.591 151.407 359.294 151.288C358.999 151.158 358.672 151.123 358.357 151.188C358.042 151.252 357.753 151.413 357.529 151.649L349.281 160.046V151.628C349.287 151.3 349.194 150.979 349.016 150.707C348.838 150.435 348.584 150.226 348.287 150.107C347.991 149.978 347.663 149.943 347.348 150.008C347.033 150.073 346.743 150.234 346.519 150.471L316.517 181.072L316.091 180.935C304.116 177.082 251.966 175.255 240.5 175.255C237.309 175.255 234.046 175.388 230.804 175.649C206.923 177.574 184.147 186.793 165.402 202.123C136.572 225.619 120.038 260.601 120.038 298.1C120.087 320.046 125.852 341.579 136.734 360.46C147.616 379.342 163.217 394.885 181.918 405.473L182.3 405.691V434.849C182.338 439.56 184.186 444.065 187.44 447.382C190.694 450.699 195.091 452.56 199.674 452.56C204.257 452.56 208.655 450.699 211.909 447.382C215.163 444.065 217.01 439.56 217.049 434.849V418.631L217.927 418.801C230.42 421.217 283.029 421.598 295.743 419.884L296.581 419.771Z" fill="#172A3A"/>
<path d="M213.468 90.7581L131.386 116.115C128.775 116.925 126.584 118.767 125.294 121.236C124.003 123.705 123.719 126.601 124.504 129.285C125.289 131.97 127.078 134.224 129.479 135.554C131.88 136.883 134.696 137.178 137.309 136.374L209.14 114.18L210.644 113.715C210.949 105.744 213.053 97.9552 216.789 90.9638C216.32 90.747 215.819 90.613 215.307 90.5676C214.688 90.506 214.063 90.5708 213.468 90.7581Z" fill="#74B3CE"/>
<path d="M135.889 141.78C134.799 141.778 133.738 141.423 132.855 140.767C131.972 140.11 131.313 139.185 130.969 138.122L125.836 122.201C125.622 121.536 125.537 120.834 125.586 120.136C125.636 119.437 125.819 118.756 126.125 118.13C126.43 117.504 126.853 116.946 127.369 116.488C127.884 116.03 128.483 115.681 129.13 115.461L195.936 92.702C196.583 92.4816 197.266 92.3943 197.945 92.4451C198.625 92.4959 199.288 92.6838 199.897 92.9981C200.506 93.3124 201.048 93.7468 201.494 94.2767C201.94 94.8066 202.279 95.4215 202.494 96.0863L207.626 112.007C208.053 113.317 207.968 114.746 207.388 115.992C206.807 117.237 205.778 118.202 204.518 118.681C204.457 118.705 204.394 118.728 204.331 118.749L137.526 141.507C136.998 141.687 136.445 141.78 135.889 141.78Z" fill="#172A3A"/>
<path d="M261.002 62.4833C247.519 62.4886 234.567 67.887 224.887 77.5356C215.207 87.1843 209.559 100.326 209.139 114.18C209.125 114.721 209.117 115.269 209.117 115.818C209.117 126.366 212.16 136.678 217.862 145.449C223.563 154.22 231.666 161.056 241.147 165.092C250.628 169.129 261.06 170.185 271.125 168.127C281.189 166.069 290.434 160.99 297.691 153.531C304.947 146.072 309.889 136.569 311.891 126.223C313.893 115.877 312.865 105.153 308.938 95.4075C305.011 85.6619 298.361 77.3322 289.828 71.4717C281.296 65.6113 271.264 62.4833 261.002 62.4833ZM261.002 167.628C247.639 167.614 234.827 162.151 225.378 152.438C215.928 142.724 210.614 129.554 210.6 115.818C210.6 115.109 210.615 114.408 210.644 113.715C211.046 103.566 214.34 93.7621 220.119 85.5225C225.897 77.283 233.904 70.9712 243.144 67.3719C252.384 63.7727 262.45 63.0448 272.089 65.2788C281.728 67.5128 290.516 72.6101 297.36 79.937C304.204 87.2638 308.801 96.4968 310.581 106.488C312.361 116.479 311.244 126.788 307.37 136.132C303.496 145.476 297.035 153.443 288.791 159.043C280.547 164.643 270.884 167.629 261.002 167.628Z" fill="#172A3A"/>
<path d="M304.734 115.818C304.734 127.74 300.127 139.174 291.925 147.605C283.724 156.035 272.601 160.771 261.002 160.771C249.404 160.771 238.281 156.035 230.079 147.605C221.878 139.174 217.271 127.74 217.271 115.818C217.271 114.393 217.337 112.991 217.463 111.604C218.517 100.098 223.842 89.4509 232.331 81.8739C240.821 74.2968 251.823 70.3719 263.054 70.9141C274.285 71.4563 284.881 76.424 292.642 84.7857C300.404 93.1473 304.734 104.261 304.734 115.818Z" fill="#004346"/>
<path d="M274.026 118.804C272.965 117.372 271.571 116.237 269.971 115.505C267.998 114.65 265.96 113.962 263.878 113.448V101.212C267.079 101.708 270.08 103.114 272.543 105.273L274.96 99.9774C273.57 98.7047 271.974 97.6913 270.245 96.983C268.329 96.1853 266.317 95.6549 264.264 95.4059V89.2038H258.668V95.4668C256.507 95.7163 254.422 96.4358 252.553 97.5773C250.864 98.6049 249.442 100.037 248.409 101.753C247.423 103.427 246.912 105.35 246.934 107.307C246.838 109.427 247.436 111.52 248.632 113.25C249.733 114.748 251.186 115.933 252.856 116.694C254.861 117.574 256.934 118.28 259.053 118.804V130.53C255.277 130.238 251.678 128.762 248.743 126.302L246.327 131.605C247.968 133 249.834 134.088 251.841 134.82C254.04 135.629 256.338 136.121 258.668 136.283V142.432H264.264V136.169C267.372 135.819 270.287 134.446 272.573 132.252C273.579 131.26 274.375 130.064 274.908 128.739C275.441 127.414 275.701 125.99 275.671 124.557C275.764 122.504 275.185 120.479 274.026 118.804ZM259.053 112.153C257.69 111.728 256.423 111.029 255.325 110.096C254.89 109.698 254.546 109.206 254.318 108.655C254.09 108.105 253.983 107.509 254.005 106.911C253.965 105.554 254.45 104.236 255.354 103.246C256.357 102.208 257.65 101.518 259.053 101.273V112.153ZM267.392 128.367C266.446 129.363 265.215 130.023 263.878 130.248V120.161C265.156 120.513 266.351 121.127 267.392 121.966C267.786 122.313 268.1 122.746 268.309 123.234C268.518 123.722 268.618 124.253 268.6 124.786C268.651 126.093 268.22 127.372 267.392 128.367Z" fill="#09BC8A"/>
<path d="M138.271 206.307C137.125 206.305 136.012 205.914 135.104 205.196C134.196 204.477 133.544 203.471 133.25 202.333L130.455 191.46C130.105 190.093 130.297 188.64 130.988 187.419C131.68 186.197 132.814 185.307 134.143 184.945L222.303 160.998C223.634 160.641 225.047 160.84 226.235 161.552C227.423 162.264 228.288 163.43 228.641 164.796L231.009 174.008L230.565 174.043C207.955 175.85 186.321 184.277 168.223 198.326L168.095 198.39L139.588 206.131C139.158 206.248 138.716 206.307 138.271 206.307Z" fill="#172A3A"/>
<path d="M123.67 260.012C113.328 258.441 103.438 254.597 94.6722 248.741C90.3296 245.842 86.3094 242.462 82.6838 238.662C79.1053 234.91 75.6819 230.646 73.9095 225.649C72.2041 221.026 72.292 215.907 74.155 211.348C75.9926 206.818 79.5027 203.222 83.9159 201.348C88.3555 199.528 93.7193 199.333 98.04 201.326C100.099 202.254 101.881 203.728 103.202 205.598C103.816 206.459 104.271 207.43 104.544 208.461C104.797 209.395 104.82 210.379 104.611 211.325C104.358 212.269 103.911 213.147 103.3 213.899C102.69 214.651 101.931 215.26 101.072 215.686C99.1839 216.681 97.1377 217.323 95.03 217.58C92.91 217.877 89.8647 218.147 88.1604 216.398C87.8096 216.052 87.5336 215.634 87.3505 215.171C87.2224 214.816 87.1786 214.435 87.2228 214.06C87.1979 214.225 87.3256 213.7 87.3183 213.721C87.2913 213.799 87.1746 213.988 87.3405 213.697C87.3924 213.601 87.4501 213.509 87.5133 213.421C87.457 213.495 87.3333 213.62 87.5542 213.406C87.7368 213.201 87.9715 213.052 88.2319 212.976C88.3345 212.945 88.4386 212.921 88.5414 212.892C88.8029 212.818 88.2808 212.896 88.5483 212.887C88.6515 212.884 88.756 212.886 88.8589 212.882C89.1213 212.869 88.6 212.808 88.8515 212.873C88.9491 212.898 89.0459 212.923 89.142 212.954C89.3511 213.022 88.994 212.796 89.1357 212.965C89.3017 213.163 88.9613 212.773 89.1501 212.964C89.244 213.059 89.3325 213.159 89.4152 213.265C89.7424 213.597 90.1838 213.783 90.6437 213.783C91.1036 213.783 91.545 213.597 91.8723 213.265C92.1884 212.924 92.3648 212.472 92.3648 212.002C92.3648 211.531 92.1884 211.079 91.8723 210.739C90.159 208.556 86.7749 209.095 85.0418 210.94C82.8315 213.293 83.7068 217.023 85.8568 219.076C88.2907 221.4 91.7379 221.562 94.8687 221.172C97.5147 220.912 100.093 220.163 102.48 218.961C104.852 217.763 106.708 215.703 107.687 213.179C108.129 211.833 108.288 210.405 108.153 208.99C108.018 207.576 107.592 206.207 106.904 204.974C104.139 199.632 98.4156 196.894 92.7581 196.419C89.8452 196.185 86.9161 196.546 84.1401 197.483C81.3641 198.42 78.7965 199.913 76.5856 201.877C72.3244 205.82 69.7004 211.296 69.2563 217.172C68.7625 223.265 71.062 229.181 74.4146 234.098C77.9244 239.093 82.1127 243.546 86.8518 247.32C96.1165 254.923 106.984 260.191 118.585 262.703C119.965 262.996 121.352 263.247 122.746 263.456C123.19 263.566 123.658 263.499 124.055 263.267C124.452 263.035 124.749 262.657 124.884 262.208C125.003 261.752 124.942 261.265 124.715 260.854C124.488 260.443 124.113 260.14 123.67 260.012L123.67 260.012Z" fill="#172A3A"/>
<path d="M289.247 182.39C274.095 182.17 258.991 182.565 243.934 183.576C238.788 183.921 234.335 185.791 234.335 188.934C234.335 191.561 238.752 194.639 243.934 194.291C258.983 193.281 274.087 192.886 289.247 193.106C301.606 193.285 301.598 182.569 289.247 182.39Z" fill="#CCCCCC"/>
<path d="M266.852 192.575C265.214 192.575 226.748 192.512 226.748 187.05C226.748 181.589 265.214 181.526 266.852 181.526C268.489 181.526 306.956 181.589 306.956 187.05C306.956 192.512 268.489 192.575 266.852 192.575ZM228.252 187.05C229.305 188.706 243.444 191.051 266.852 191.051C290.26 191.051 304.399 188.706 305.452 187.05C304.399 185.395 290.26 183.05 266.852 183.05C243.444 183.05 229.305 185.395 228.252 187.05V187.05Z" fill="#172A3A"/>
<path d="M388.896 336.159C397.411 335.916 408.009 335.612 416.173 329.482C418.605 327.581 420.602 325.157 422.026 322.38C423.45 319.602 424.266 316.538 424.416 313.402C424.583 308.561 422.881 304.335 419.624 301.506C415.36 297.802 409.133 296.933 402.423 298.96L409.375 246.732L404.271 246.013L396.098 307.414L400.36 305.404C405.301 303.074 412.084 301.888 416.299 305.55C417.334 306.507 418.14 307.697 418.655 309.026C419.17 310.356 419.38 311.79 419.268 313.216C419.143 315.55 418.531 317.829 417.472 319.898C416.414 321.966 414.934 323.776 413.134 325.205C406.781 329.975 398.333 330.591 388.753 330.866L388.896 336.159Z" fill="#172A3A"/>
<path d="M374.784 251.236H347.039V256.532H374.784V251.236Z" fill="#172A3A"/>
<path d="M150.826 230.662C149.591 230.658 148.398 230.202 147.46 229.376C146.523 228.55 145.902 227.407 145.709 226.153L144.015 215.043C143.804 213.646 144.14 212.22 144.951 211.077C145.761 209.934 146.979 209.169 148.338 208.948L238.419 194.44C239.779 194.222 241.166 194.568 242.278 195.401C243.389 196.234 244.134 197.486 244.348 198.883L246.042 209.993C246.253 211.391 245.917 212.817 245.107 213.96C244.296 215.102 243.078 215.868 241.719 216.088L151.638 230.597C151.37 230.64 151.098 230.662 150.826 230.662Z" fill="#172A3A"/>
<path d="M113.546 100.463C134.424 100.463 151.348 83.0655 151.348 61.6049C151.348 40.1442 134.424 22.7469 113.546 22.7469C92.6688 22.7469 75.7443 40.1442 75.7443 61.6049C75.7443 83.0655 92.6688 100.463 113.546 100.463Z" fill="#74B3CE"/>
<path d="M134.949 71.6591C136.157 71.2248 137.261 70.5295 138.186 69.6201C138.798 68.9718 139.265 68.1937 139.553 67.3405C139.842 66.4872 139.946 65.5794 139.857 64.6806C139.806 64.04 139.611 63.4203 139.288 62.8699C138.965 62.3195 138.523 61.8534 137.995 61.5079C136.627 60.643 134.819 60.6757 132.994 61.5454L132.784 46.3772L131.301 46.3989L131.549 64.2307L132.677 63.47C133.986 62.5893 135.866 61.9507 137.219 62.8059C137.553 63.0324 137.832 63.335 138.034 63.6904C138.237 64.0459 138.356 64.4444 138.384 64.8551C138.447 65.5247 138.368 66.2003 138.154 66.8358C137.939 67.4713 137.594 68.0519 137.142 68.538C135.535 70.177 133.157 70.7262 130.442 71.2284L130.705 72.728C132.148 72.5028 133.568 72.145 134.949 71.6591Z" fill="#172A3A"/>
<path d="M148.048 45.3126L140.154 46.5415L140.376 48.0479L148.27 46.819L148.048 45.3126Z" fill="#172A3A"/>
<path d="M123.131 49.1907L115.237 50.4196L115.459 51.926L123.353 50.6971L123.131 49.1907Z" fill="#172A3A"/>
<path d="M138.528 229.983C137.168 229.98 135.842 229.551 134.725 228.754C133.608 227.957 132.754 226.83 132.276 225.522L106.212 153.772C103.027 144.973 103.367 135.234 107.158 126.691C110.95 118.149 117.882 111.502 126.436 108.208L147.628 100.073C148.448 99.7567 149.32 99.6097 150.195 99.641C151.07 99.6722 151.93 99.881 152.727 100.255C153.521 100.62 154.236 101.144 154.831 101.796C155.426 102.448 155.889 103.216 156.192 104.054L204.472 197.758C204.786 198.603 204.933 199.503 204.907 200.407C204.881 201.311 204.681 202.201 204.319 203.025C203.956 203.849 203.439 204.591 202.797 205.209C202.155 205.827 201.4 206.309 200.576 206.625L140.859 229.547C140.113 229.834 139.324 229.982 138.528 229.983Z" fill="#172A3A"/>
<path d="M141.199 102.541L189.103 168.391L156.688 103.232C156.42 102.472 156.01 101.773 155.479 101.176C154.949 100.579 154.309 100.096 153.597 99.7527C152.884 99.4098 152.113 99.2146 151.328 99.1781C150.542 99.1416 149.757 99.2646 149.017 99.54L141.199 102.541Z" fill="#E6E6E6"/>
<path d="M217.049 152.55L131.516 146.886C130.168 146.797 128.85 146.436 127.637 145.823C126.425 145.21 125.342 144.358 124.45 143.315C123.558 142.272 122.875 141.058 122.439 139.744C122.004 138.429 121.824 137.039 121.911 135.654C121.998 134.268 122.349 132.913 122.945 131.667C123.541 130.421 124.371 129.307 125.385 128.39C126.4 127.474 127.581 126.771 128.859 126.323C130.138 125.875 131.49 125.691 132.838 125.78L218.371 131.443C219.003 131.485 219.62 131.654 220.188 131.941C220.755 132.228 221.263 132.627 221.68 133.116C222.098 133.604 222.418 134.172 222.622 134.788C222.826 135.404 222.91 136.054 222.87 136.704L222.166 147.926C222.084 149.237 221.499 150.46 220.539 151.327C219.579 152.194 218.324 152.634 217.049 152.55Z" fill="#74B3CE"/>
<path d="M194.193 156.181C194.08 156.181 193.967 156.177 193.853 156.169H193.853L123.619 151.519C122.939 151.474 122.274 151.292 121.662 150.983C121.051 150.674 120.505 150.244 120.055 149.718C119.605 149.192 119.26 148.58 119.041 147.917C118.821 147.254 118.73 146.553 118.774 145.854L119.975 126.686C120.019 125.987 120.196 125.303 120.497 124.675C120.798 124.046 121.216 123.485 121.728 123.022C122.24 122.56 122.835 122.206 123.48 121.98C124.125 121.754 124.807 121.661 125.487 121.706L195.722 126.356C197.094 126.449 198.375 127.097 199.283 128.159C200.191 129.221 200.653 130.61 200.566 132.021L199.365 151.19C199.299 152.217 198.946 153.203 198.348 154.029C197.75 154.855 196.933 155.486 195.995 155.846C195.419 156.068 194.808 156.181 194.193 156.181Z" fill="#172A3A"/>
<path d="M113.113 35.765C118.086 31.3684 124.915 35.3014 130.618 34.6129C136.074 33.9542 140.383 28.9233 141.483 23.5785C142.767 17.343 139.619 11.0958 134.978 7.20807C129.895 2.95002 123.154 1.72763 116.766 2.51541C109.444 3.41828 102.749 6.92643 96.7405 11.1697C90.9412 15.1386 85.6081 19.784 80.8476 25.0132C76.5848 29.8526 72.9731 35.6212 71.8198 42.1333C70.7717 48.0516 71.572 54.6098 74.9755 59.6233C76.7803 62.193 79.1989 64.2412 81.9979 65.5703C84.9164 67.0435 88.0296 68.0966 90.8571 69.7622C95.1322 72.2806 99.2873 77.5024 97.9481 82.9365C97.661 84.1236 97.0944 85.2199 96.2981 86.129C95.3415 87.2206 93.6159 85.7781 94.5751 84.6835C96.2597 82.7612 96.1934 80.1974 95.2956 77.9023C94.228 75.316 92.3376 73.1791 89.934 71.8417C86.9743 70.1023 83.7067 69.0287 80.6733 67.4443C77.7698 65.9969 75.2494 63.8499 73.3268 61.186C69.6961 55.9996 68.6101 49.2498 69.4335 43.0058C70.3246 36.2488 73.702 30.1086 77.9358 24.9632C82.5433 19.3635 88.203 14.6235 93.9849 10.3653C100.189 5.79614 107.043 1.93326 114.628 0.536118C121.203 -0.674985 128.329 0.070646 134.078 3.75366C139.445 7.19151 143.56 13.1053 143.969 19.7134C144.116 22.72 143.481 25.7126 142.129 28.3832C140.778 31.0538 138.758 33.3058 136.278 34.9076C133.734 36.4728 130.776 37.1772 127.821 36.9216C124.662 36.7138 121.501 35.7195 118.322 35.9956C116.883 36.0853 115.512 36.6547 114.417 37.6173C113.33 38.5779 112.035 36.7177 113.113 35.765V35.765Z" fill="#172A3A"/>
<path d="M548.117 455H0.882564C0.64894 454.999 0.42512 454.903 0.260161 454.733C0.0952023 454.563 0.00256348 454.333 0.00256348 454.093C0.00256348 453.853 0.0952023 453.622 0.260161 453.452C0.42512 453.282 0.64894 453.186 0.882564 453.186H548.117C548.352 453.186 548.576 453.281 548.742 453.451C548.907 453.621 549 453.852 549 454.093C549 454.333 548.907 454.564 548.742 454.734C548.576 454.904 548.352 455 548.117 455Z" fill="#3F3D56"/>
</svg>
