<svg width="545" height="487" viewBox="0 0 545 487" fill="none" xmlns="http://www.w3.org/2000/svg">
<g clip-path="url(#clip0)">
<path d="M434.073 346.007C434.073 346.007 501.497 349.338 485.792 369.617C470.088 389.896 428.822 357.721 428.822 357.721L434.073 346.007Z" fill="#FFB8B8"/>
<path d="M309.822 152.851L323.546 156.129C323.546 156.129 331.552 179.075 337.27 199.837C342.988 220.598 354.425 282.881 354.425 282.881L443.088 342.25L432.513 364.853L314.397 320.375L288.093 221.69L309.822 152.851Z" fill="#74B3CE"/>
<path opacity="0.2" d="M322.735 193.581L317.62 295.923L328.293 326.35L297.027 304.443L322.735 193.581Z" fill="black"/>
<path d="M341.273 375.214C341.273 375.214 356.14 413.458 358.427 439.682C360.715 465.907 363.002 486.668 363.002 486.668H293.24L279.516 467V486.668H198.317C198.317 486.668 175.444 415.643 184.593 406.902C193.742 398.16 280.659 361.009 280.659 361.009L341.273 375.214Z" fill="#172A3A"/>
<path d="M474.201 485.672H70.5223V487H474.201V485.672Z" fill="#3F3D56"/>
<path d="M253.784 111.329C277.785 111.329 297.242 92.7385 297.242 69.8064C297.242 46.8743 277.785 28.2841 253.784 28.2841C229.782 28.2841 210.325 46.8743 210.325 69.8064C210.325 92.7385 229.782 111.329 253.784 111.329Z" fill="#FFB8B8"/>
<path d="M220.618 87.2894L217.187 135.368L260.646 191.095L282.375 138.646C282.375 138.646 262.933 126.626 274.369 101.494L220.618 87.2894Z" fill="#FFB8B8"/>
<path d="M347.56 384.5C347.56 394.338 318.969 409.633 318.969 409.633V415.097L307.533 420.56L282.374 372.485L275.516 424.928C275.516 424.928 225.192 432.582 209.184 424.928C193.168 417.281 185.164 420.56 162.292 412.913C139.419 405.265 171.442 302.549 171.442 302.549L148.569 144.109L198.539 120.238L201.173 118.976L208.044 117.768L218.577 115.909L253.783 138.646L256.618 152.852L258.362 161.595L267.505 151.757L274.411 130.056L323.548 156.132L309.825 261.025C309.825 261.025 347.56 374.669 347.56 384.5Z" fill="#74B3CE"/>
<path d="M179.447 418.375C179.447 418.375 232.054 458.804 206.894 466.453C181.734 474.102 168.01 424.931 168.01 424.931L179.447 418.375Z" fill="#FFB8B8"/>
<path d="M160.005 146.295L148.568 144.109C148.568 144.109 131.414 152.851 130.27 170.334C129.126 187.817 114.259 310.198 114.259 310.198L162.292 433.673L201.176 419.468L163.436 303.642L192.027 203.115L160.005 146.295Z" fill="#74B3CE"/>
<path d="M258.813 179.64C261.116 179.64 262.982 177.857 262.982 175.657C262.982 173.458 261.116 171.674 258.813 171.674C256.511 171.674 254.644 173.458 254.644 175.657C254.644 177.857 256.511 179.64 258.813 179.64Z" fill="#172A3A"/>
<path d="M258.813 205.53C261.116 205.53 262.982 203.747 262.982 201.547C262.982 199.347 261.116 197.564 258.813 197.564C256.511 197.564 254.644 199.347 254.644 201.547C254.644 203.747 256.511 205.53 258.813 205.53Z" fill="#172A3A"/>
<path d="M282.436 376.138C284.739 376.138 286.605 374.355 286.605 372.155C286.605 369.955 284.739 368.172 282.436 368.172C280.134 368.172 278.268 369.955 278.268 372.155C278.268 374.355 280.134 376.138 282.436 376.138Z" fill="#2F2E41"/>
<path d="M217.092 27.2687L209.059 24.1958C209.059 24.1958 225.856 6.52676 249.226 8.06324L242.653 1.14922C242.653 1.14922 258.721 -4.99647 273.327 11.1361C281.005 19.6166 289.889 29.585 295.427 40.8143H304.031L300.44 48.3684L313.008 55.9226L300.108 54.5657C300.877 58.7024 300.995 62.9256 300.458 67.0956C299.905 71.2669 297.677 75.0696 294.245 77.7011C294.245 77.7011 284.282 57.9974 284.282 54.9245V62.6067C284.282 62.6067 276.248 55.6928 276.248 51.0835L271.866 56.461H242.653L247.035 49.5471L230.238 51.8517L236.811 43.4012L210.804 78.2961C210.804 78.2961 195.913 38.7919 217.092 27.2687Z" fill="#2F2E41"/>
<path d="M475.52 320.998C513.893 320.998 545 291.277 545 254.614C545 217.951 513.893 188.23 475.52 188.23C437.147 188.23 406.04 217.951 406.04 254.614C406.04 291.277 437.147 320.998 475.52 320.998Z" fill="#172A3A"/>
<path opacity="0.1" d="M475.52 311.704C508.521 311.704 535.273 286.144 535.273 254.614C535.273 223.084 508.521 197.523 475.52 197.523C442.519 197.523 415.767 223.084 415.767 254.614C415.767 286.144 442.519 311.704 475.52 311.704Z" fill="#508991"/>
<path d="M472.657 288.303V279.993C468.26 279.911 463.713 278.43 461.06 276.373L462.879 270.861C466.031 273.118 469.854 274.357 473.794 274.398C479.175 274.398 482.814 271.025 482.814 266.336C482.814 261.811 479.857 259.014 474.248 256.546C466.517 253.255 461.742 249.47 461.742 242.313C461.742 235.484 466.214 230.301 473.187 229.067V220.758H477.887V228.738C481.391 228.784 484.809 229.783 487.741 231.618L485.845 237.048C483.034 235.209 479.702 234.233 476.295 234.25C470.459 234.25 468.261 238.035 468.261 241.326C468.261 245.604 471.065 247.743 477.66 250.705C485.466 254.16 489.408 258.438 489.408 265.76C489.408 272.259 485.239 278.348 477.432 279.746V288.303H472.657Z" fill="#09BC8A"/>
<path opacity="0.2" d="M173.704 335.155L201.492 418.091L179.259 331.791L173.704 335.155Z" fill="black"/>
<path d="M32.0257 173.133H14.3869C13.6182 173.132 12.8811 172.84 12.3375 172.32C11.7939 171.801 11.4882 171.097 11.4873 170.362V146.136C11.4882 145.402 11.7939 144.698 12.3375 144.178C12.8811 143.659 13.6182 143.367 14.3869 143.366H32.0257C32.7944 143.367 33.5315 143.659 34.0751 144.178C34.6187 144.698 34.9244 145.402 34.9253 146.136V170.362C34.9244 171.097 34.6187 171.801 34.0751 172.32C33.5315 172.84 32.7944 173.132 32.0257 173.133ZM14.3869 144.694C13.9866 144.694 13.6028 144.846 13.3197 145.117C13.0366 145.387 12.8774 145.754 12.8769 146.136V170.362C12.8774 170.745 13.0366 171.111 13.3197 171.382C13.6028 171.652 13.9866 171.804 14.3869 171.805H32.0257C32.426 171.804 32.8098 171.652 33.0929 171.382C33.376 171.111 33.5352 170.745 33.5357 170.362V146.136C33.5352 145.754 33.376 145.387 33.0929 145.117C32.8098 144.846 32.426 144.694 32.0257 144.694H14.3869Z" fill="#3F3D56"/>
<path d="M64.2433 173.133H48.3144C47.319 173.131 46.3647 172.753 45.6609 172.081C44.957 171.408 44.561 170.496 44.5599 169.545V120.621C44.561 119.669 44.957 118.758 45.6609 118.085C46.3647 117.413 47.319 117.034 48.3144 117.033H64.2433C65.2387 117.034 66.193 117.413 66.8969 118.085C67.6007 118.758 67.9967 119.669 67.9979 120.621V169.545C67.9967 170.496 67.6007 171.408 66.8969 172.081C66.193 172.753 65.2387 173.131 64.2433 173.133ZM48.3144 118.361C47.6874 118.362 47.0863 118.6 46.6429 119.023C46.1996 119.447 45.9502 120.021 45.9495 120.621V169.545C45.9502 170.144 46.1996 170.719 46.6429 171.142C47.0863 171.566 47.6874 171.804 48.3144 171.805H64.2433C64.8703 171.804 65.4714 171.566 65.9148 171.142C66.3582 170.719 66.6076 170.144 66.6083 169.545V120.621C66.6076 120.021 66.3582 119.447 65.9148 119.024C65.4714 118.6 64.8703 118.362 64.2433 118.361L48.3144 118.361Z" fill="#3F3D56"/>
<path d="M96.7008 173.133H82.0021C80.8436 173.131 79.7329 172.691 78.9137 171.908C78.0946 171.126 77.6338 170.065 77.6324 168.958V96.9825C77.6338 95.8756 78.0946 94.8144 78.9137 94.0317C79.7329 93.249 80.8436 92.8088 82.0021 92.8075H96.7008C97.8593 92.8088 98.97 93.249 99.7891 94.0317C100.608 94.8144 101.069 95.8756 101.07 96.9825V168.958C101.069 170.065 100.608 171.126 99.7891 171.908C98.97 172.691 97.8593 173.131 96.7008 173.133ZM82.0021 94.1352C81.212 94.1361 80.4545 94.4363 79.8959 94.9701C79.3372 95.5039 79.0229 96.2276 79.022 96.9825V168.958C79.0229 169.713 79.3372 170.436 79.8959 170.97C80.4545 171.504 81.212 171.804 82.0021 171.805H96.7008C97.4909 171.804 98.2483 171.504 98.807 170.97C99.3657 170.436 99.6799 169.713 99.6808 168.958V96.9825C99.6799 96.2276 99.3657 95.5039 98.807 94.9701C98.2483 94.4363 97.4909 94.1361 96.7008 94.1352H82.0021Z" fill="#3F3D56"/>
<path d="M29.8209 147.98H16.5919V168.519H29.8209V147.98Z" fill="#004346"/>
<path d="M62.8934 121.91H49.6644V168.519H62.8934V121.91Z" fill="#004346"/>
<path d="M95.9659 97.6845H82.7369V168.519H95.9659V97.6845Z" fill="#004346"/>
<path d="M502.341 96.7906H409.932C409.841 96.7906 409.751 96.7734 409.666 96.7401C409.582 96.7067 409.506 96.6578 409.441 96.5962C409.376 96.5345 409.325 96.4613 409.29 96.3808C409.256 96.3002 409.238 96.2139 409.238 96.1267V6.50785C409.238 6.33179 409.311 6.16294 409.441 6.03844C409.571 5.91395 409.748 5.84401 409.932 5.84401C410.117 5.84401 410.293 5.91395 410.424 6.03844C410.554 6.16294 410.627 6.33179 410.627 6.50785V95.4629H502.341C502.525 95.4629 502.702 95.5328 502.832 95.6573C502.962 95.7818 503.036 95.9507 503.036 96.1267C503.036 96.3028 502.962 96.4716 502.832 96.5961C502.702 96.7206 502.525 96.7906 502.341 96.7906Z" fill="#3F3D56"/>
<path d="M110.473 182.426H0.694801C0.603551 182.426 0.513194 182.409 0.428886 182.376C0.344578 182.343 0.267972 182.294 0.203449 182.232C0.138926 182.17 0.0877481 182.097 0.0528395 182.017C0.0179309 181.936 -2.37105e-05 181.85 2.34996e-08 181.763V77.5391C2.34996e-08 77.3631 0.0732015 77.1942 0.203502 77.0697C0.333802 76.9452 0.510528 76.8753 0.694801 76.8753C0.879073 76.8753 1.0558 76.9452 1.1861 77.0697C1.3164 77.1942 1.3896 77.3631 1.3896 77.5391V181.099H110.473C110.658 181.099 110.834 181.169 110.965 181.293C111.095 181.418 111.168 181.586 111.168 181.763C111.168 181.939 111.095 182.107 110.965 182.232C110.834 182.356 110.658 182.426 110.473 182.426Z" fill="#3F3D56"/>
<path d="M441.823 88.4708H424.184C423.415 88.4701 422.678 88.178 422.134 87.6586C421.591 87.1392 421.285 86.4349 421.284 85.7004V61.4746C421.285 60.7401 421.591 60.0358 422.134 59.5164C422.678 58.997 423.415 58.7049 424.184 58.7042H441.823C442.591 58.7051 443.328 58.9972 443.872 59.5166C444.415 60.036 444.721 60.7402 444.722 61.4746V85.7004C444.721 86.4349 444.415 87.139 443.872 87.6584C443.328 88.1778 442.591 88.4699 441.823 88.4708ZM424.184 60.0319C423.784 60.0323 423.4 60.1845 423.117 60.4549C422.833 60.7254 422.674 61.0921 422.674 61.4746V85.7004C422.674 86.083 422.833 86.4497 423.117 86.7201C423.4 86.9906 423.784 87.1427 424.184 87.1432H441.823C442.223 87.1427 442.607 86.9905 442.89 86.72C443.173 86.4496 443.332 86.0829 443.332 85.7004V61.4746C443.332 61.0922 443.173 60.7255 442.89 60.455C442.607 60.1845 442.223 60.0323 441.823 60.0319H424.184Z" fill="#3F3D56"/>
<path d="M477.945 88.4708H461.71C460.755 88.4697 459.84 88.1068 459.164 87.4616C458.489 86.8165 458.109 85.9418 458.108 85.0294V41.1496C458.109 40.2373 458.489 39.3626 459.164 38.7175C459.84 38.0724 460.755 37.7095 461.71 37.7085H477.945C478.9 37.7095 479.815 38.0724 480.49 38.7175C481.165 39.3626 481.545 40.2373 481.546 41.1496V85.0294C481.545 85.9418 481.165 86.8165 480.49 87.4616C479.815 88.1068 478.9 88.4697 477.945 88.4708ZM461.71 39.0362C461.123 39.0368 460.561 39.2596 460.147 39.6558C459.732 40.0521 459.499 40.5893 459.498 41.1496V85.0294C459.499 85.5898 459.732 86.1271 460.146 86.5233C460.561 86.9196 461.123 87.1425 461.71 87.1431H477.945C478.531 87.1425 479.094 86.9196 479.508 86.5233C479.923 86.1271 480.156 85.5898 480.157 85.0294V41.1496C480.156 40.5893 479.923 40.0521 479.508 39.6559C479.093 39.2596 478.531 39.0368 477.945 39.0362H461.71Z" fill="#3F3D56"/>
<path d="M439.3 63.5477H426.071V84.0871H439.3V63.5477Z" fill="#004346"/>
<path d="M476.442 43.2196H463.213V82.9597H476.442V43.2196Z" fill="#004346"/>
<path d="M432.861 51.6492C436.314 51.6492 439.114 48.9743 439.114 45.6746C439.114 42.375 436.314 39.7 432.861 39.7C429.407 39.7 426.608 42.375 426.608 45.6746C426.608 48.9743 429.407 51.6492 432.861 51.6492Z" fill="#004346"/>
<path d="M469.685 29.0785C473.139 29.0785 475.938 26.4036 475.938 23.1039C475.938 19.8043 473.139 17.1293 469.685 17.1293C466.232 17.1293 463.432 19.8043 463.432 23.1039C463.432 26.4036 466.232 29.0785 469.685 29.0785Z" fill="#004346"/>
</g>
<defs>
<clipPath id="clip0">
<rect width="545" height="487" fill="white"/>
</clipPath>
</defs>
</svg>
